<?xml version="1.0" encoding="UTF-8" standalone="no"?>
<!-- Created with Inkscape (http://www.inkscape.org/) -->

<svg
   width="11in"
   height="8.5in"
   viewBox="0 0 990.00004 765"
   version="1.1"
   id="svg1"
   inkscape:version="1.3.2 (091e20e, 2023-11-25)"
   sodipodi:docname="black_handwritten.svg"
   inkscape:export-filename="color_handwritten.png"
   inkscape:export-xdpi="300"
   inkscape:export-ydpi="300"
   xmlns:inkscape="http://www.inkscape.org/namespaces/inkscape"
   xmlns:sodipodi="http://sodipodi.sourceforge.net/DTD/sodipodi-0.dtd"
   xmlns="http://www.w3.org/2000/svg"
   xmlns:svg="http://www.w3.org/2000/svg">
  <sodipodi:namedview
     id="namedview1"
     pagecolor="#ffffff"
     bordercolor="#000000"
     borderopacity="1"
     inkscape:showpageshadow="false"
     inkscape:pageopacity="0.0"
     inkscape:pagecheckerboard="false"
     inkscape:deskcolor="#d1d1d1"
     inkscape:document-units="pt"
     showborder="true"
     borderlayer="true"
     labelstyle="default"
     inkscape:zoom="1.92"
     inkscape:cx="570.05208"
     inkscape:cy="445.05208"
     inkscape:current-layer="svg1"
     showgrid="true"
     showguides="true">
    <inkscape:page
       x="0"
       y="0"
       width="990.00006"
       height="765"
       id="page1"
       margin="10.625 10.625 18.125"
       bleed="0" />
    <inkscape:grid
       id="grid1"
       units="pt"
       originx="0"
       originy="0"
       spacingx="45"
       spacingy="45"
       empcolor="#000000"
       empopacity="0.30196078"
       color="#000000"
       opacity="0.05098039"
       empspacing="2"
       dotted="false"
       gridanglex="30"
       gridanglez="30"
       visible="true"
       enabled="true" />
  </sodipodi:namedview>
  <defs
     id="defs1" />
  <rect
     style="display:inline;fill:#ffffff;fill-opacity:1;stroke:none;stroke-width:0.333333;stroke-linecap:round;stroke-linejoin:round;stroke-dasharray:2, 2"
     id="rect1"
     width="1056"
     height="816"
     x="0"
     y="0"
     transform="matrix(0.9375,0,0,0.9375,2.0517578e-5,7.7272726e-6)"
     inkscape:export-filename="black_handwritten.png"
     inkscape:export-xdpi="300"
     inkscape:export-ydpi="300" />
  <g
     inkscape:groupmode="layer"
     id="layer4"
     inkscape:label="Paper"
     style="display:none"
     transform="translate(10.625,10.625)">
    <rect
       style="fill:none;fill-rule:evenodd;stroke:#000000;stroke-linecap:round;stroke-linejoin:round;stroke-opacity:1"
       id="rect123"
       width="1056"
       height="816"
       x="0"
       y="0"
       transform="scale(0.9375)" />
  </g>
  <g
     inkscape:groupmode="layer"
     id="layer3"
     inkscape:label="Note Wheel"
     style="display:inline"
     transform="translate(10.625,10.625)">
    <path
       id="path5"
       style="display:inline;fill:none;fill-rule:evenodd;stroke:#000000;stroke-width:5.34308;stroke-linecap:round;stroke-linejoin:round;stroke-dasharray:none"
       transform="matrix(0.42110508,0,0,0.42110508,441.27071,304.58286)"
       d="m -826.49455,803.18935 c 0,0 3.82606,3.72933 6.12786,5.02491 2.73607,1.54 5.8099,2.49418 8.8857,3.12502 2.70723,0.55536 5.50946,0.49502 8.27268,0.55156 2.38991,0.0482 4.80574,0.17333 7.16935,-0.18378 3.50428,-0.52927 6.91367,-1.64054 10.23384,-2.87982 3.27856,-1.22389 6.57841,-2.54405 9.4982,-4.47325 2.51062,-1.65938 4.82479,-3.68473 6.74059,-6.00564 1.42273,-1.72327 2.76648,-3.62638 3.43203,-5.75987 0.61378,-1.97044 0.75019,-4.14082 0.41655,-6.17698 -0.46027,-2.80822 -1.49454,-5.66024 -3.26324,-7.8898 -1.72958,-2.17853 -4.32154,-3.56709 -6.78677,-4.85611 -3.2018,-1.67351 -6.70785,-2.74951 -10.20895,-3.64015 -2.52918,-0.64223 -5.13395,-0.98685 -7.73367,-1.21332 -2.23873,-0.19511 -6.74068,-0.12266 -6.74068,-0.12266 l -2.32821,0.73529 -12.16988,11.36173 10.43205,7.22344 -17.93302,-12.76348 7.50092,5.24508 24.69724,-24.697 m 490.29433,-818.280249 c 0,0 -1.28685,-2.755718 -2.41831,-3.69842 -2.12794,-1.773602 -4.93329,-2.736298 -7.66076,-3.219027 -5.89478,-1.044051 -15.38635,0.817569 -21.53635,4.3673 -2.89418,1.670643 -5.34889,4.054174 -7.65558,6.471947 -1.77018,1.855187 -3.35529,3.909162 -4.68536,6.1016 -6.53484,10.180251 -7.152,20.67432 0.24254,30.569253 1.53746,1.858734 3.51357,3.365978 5.5858,4.601023 8.71955,5.151422 18.69102,5.3594 28.14224,2.453622 2.96264,-0.935689 5.75658,-2.342511 8.59333,-3.609822 2.07687,-0.928 6.16645,-2.923378 6.16645,-2.923378 m -619.449,485.268201 c 0,0 -18.15936,-7.01522 -27.28542,-10.39913 -5.9888,-2.22072 -12.02859,-4.30192 -18.0256,-6.49987 -4.1967,-1.53782 -12.56591,-4.67951 -12.56591,-4.67951 l 0.25995,-1.3866 c 0,0 5.58481,-3.59936 8.49288,-5.19991 5.04764,-2.77825 10.24696,-5.28634 15.51241,-7.6262 4.49013,-1.99514 9.1325,-3.62856 13.69247,-5.4596 4.00472,-1.60803 8.11481,-2.97956 12.0027,-4.85291 2.54135,-1.22469 7.37057,-4.15978 7.37057,-4.15978 m -20.23983,42.63755 c 0,0 -1.30261,-6.79311 -2.1665,-10.13946 -1.01909,-3.94616 -2.57351,-7.74305 -3.55315,-11.69934 -0.80636,-3.25555 -1.2071,-6.59924 -1.90673,-9.87942 -0.66213,-3.10444 -2.16656,-9.27282 -2.16656,-9.27282 M 52.710434,279.01808 -3.6419215,294.38688 c 0,0 1.8664222,4.98287 3.09582224,7.33491 1.55606666,2.97645 3.35137776,5.84329 5.38617776,8.51558 2.284,2.99898 4.8943556,5.75135 7.6076225,8.36873 2.404733,2.31998 4.915644,4.55931 7.655422,6.47207 2.529467,1.76531 5.236356,3.29647 8.044022,4.57355 2.800889,1.27352 5.677156,2.54405 8.712156,3.0486 2.149555,0.35738 4.397178,0.36438 6.536911,-0.0471 2.312089,-0.444 4.731489,-1.11091 6.578533,-2.57024 2.347622,-1.85565 3.885911,-4.65009 5.1102,-7.38053 1.481156,-3.30267 2.136911,-6.95836 2.555245,-10.55358 0.369422,-3.17376 0.269533,-6.40656 -0.05622,-9.58491 -0.324222,-3.16756 -0.968577,-6.31454 -1.881288,-9.36509 -0.683623,-2.28622 -1.667867,-4.47694 -2.676289,-6.63971 -1.027511,-2.20371 -3.429734,-6.43783 -3.429734,-6.43783 M -209.49197,906.01119 c 0,0 10.69858,-6.61087 15.72256,-10.37824 7.70018,-5.774 13.99553,-10.22323 19.66818,-15.15816 2.31662,-2.01513 6.85184,-6.15733 6.85184,-6.15733 l 5.36929,6.00622 c 0,0 -6.017,-6.58296 -8.9446,-9.94607 -3.02464,-3.4748 -6.25838,-6.7984 -8.90458,-10.56966 -1.45991,-2.08098 -3.81282,-6.60467 -3.81282,-6.60467 l 3.47153,-4.90633 c 0,0 -4.35471,6.07711 -6.96975,8.72713 -4.72947,4.79371 -10.41127,8.54384 -15.615,12.81807 -4.77416,3.92155 -14.3192,11.76953 -14.3192,11.76953 0,0 21.30978,-15.19747 30.15935,-24.71758 1.17049,-1.25891 2.96945,-4.21606 2.96945,-4.21606 l -11.36773,-20.20998 m 108.151351,-12.96411 24.327866,-25.921 -21.018622,-21.38665 -22.979535,28.74005 22.795646,-28.55585 -18.377446,-16.78433 -27.79002,31.65064 m -789.2737,-104.83377 27.98121,-16.72356 m -39.50087,10.86671 28.61394,-18.09969 m -1.9696,25.18009 c -9.06509,-6.06644 -18.21901,-13.14453 -27.39069,-20.42095 m 38.89259,11.78424 c -10.68163,-5.49489 -19.53496,-11.72622 -27.7658,-18.20838 m 22.88867,53.80369 c 0,0 2.7306,4.59196 4.61839,6.43945 2.24434,2.19588 4.96662,3.91295 7.774,5.31848 2.47124,1.23712 5.19355,1.90427 7.84789,2.6738 2.29633,0.66578 4.59723,1.41129 6.97299,1.67834 3.52165,0.3954 7.10247,0.20422 10.63034,-0.13356 3.48347,-0.33333 7.01269,-0.75435 10.33235,-1.86264 2.85436,-0.95282 5.61408,-2.31011 8.06503,-4.05602 1.82091,-1.29649 3.61094,-2.78707 4.80589,-4.67572 1.10303,-1.74406 1.79659,-3.80504 2.00122,-5.85855 0.28244,-2.83167 0.0216,-5.85409 -1.10997,-8.46538 -1.10664,-2.55198 -3.25075,-4.56435 -5.29844,-6.44735 -2.65953,-2.44512 -5.7677,-4.39178 -8.91876,-6.15825 -2.27721,-1.27502 -4.7039,-2.28195 -7.15622,-3.1734 -2.11212,-0.76804 -6.47927,-1.86324 -6.47927,-1.86324 l -2.4397,0.108 -14.69535,7.82429 8.20705,9.67775 -14.01865,-16.97013 5.88779,7.00786 30.2476,-17.46344 m 237.55248,284.38629 12.15598,-46.80858 c 0,0 -7.7445,2.7818 -11.48013,4.58389 -1.57905,0.76173 -3.29586,1.70431 -4.53816,2.94107 -1.19832,1.19331 -1.90848,2.8658 -2.34142,4.5006 -0.52487,1.95893 -0.83843,4.14517 -0.23015,6.07986 0.45469,1.446 1.27803,2.77698 2.63237,3.45794 1.74618,0.87893 3.54933,0.91557 5.50391,0.87422 1.34439,-0.0276 4.49808,-0.85711 4.49808,-0.85711 m 25.43019,13.63553 c 0,0 5.17819,1.31649 7.81938,1.28789 3.13951,-0.0344 6.27863,-0.74496 9.25772,-1.73649 2.62211,-0.87204 5.01889,-2.32584 7.44,-3.65867 2.09433,-1.1524 4.24891,-2.25264 6.11729,-3.74368 2.76982,-2.21083 5.16675,-4.87796 7.4224,-7.61127 2.22753,-2.69918 4.4254,-5.49258 5.98906,-8.62325 1.34454,-2.69182 2.33627,-5.60313 2.83476,-8.5712 0.37064,-2.20368 0.58267,-4.52344 0.092,-6.70393 -0.45331,-2.01331 -1.42029,-3.961 -2.72749,-5.55775 -1.80269,-2.20209 -4.12436,-4.15483 -6.77087,-5.20129 -2.587,-1.02165 -5.52609,-0.92858 -8.30553,-0.81207 -3.60958,0.15178 -7.18391,0.97282 -10.6614,1.95207 -2.51151,0.70771 -4.93943,1.71224 -7.30401,2.81593 -2.03628,0.95073 -5.89889,3.26429 -5.89889,3.26429 l -1.64894,1.80107 -4.85872,15.92402 12.64651,1.0398 -21.91215,-2.08696 9.11824,0.79207 9.04014,-33.73713 m -145.79221,0.94028 c 0,0 4.6609,2.61196 7.21962,3.26763 3.0414,0.77942 6.25748,0.90571 9.39173,0.71875 2.7587,-0.16422 5.44987,-0.94764 8.13354,-1.60826 2.32116,-0.5712 4.68696,-1.07598 6.87751,-2.03305 3.24783,-1.41842 6.25351,-3.37404 9.13977,-5.43055 2.85004,-2.03076 5.69582,-4.15989 8.01679,-6.77909 1.99559,-2.25265 3.70672,-4.80785 4.95656,-7.54543 0.92822,-2.03293 1.73359,-4.21906 1.82433,-6.45195 0.0828,-2.06225 -0.34711,-4.19389 -1.19641,-6.07447 -1.17138,-2.59335 -2.90858,-5.08053 -5.19408,-6.77635 -2.23445,-1.65649 -5.09747,-2.32687 -7.81235,-2.93405 -3.52584,-0.7878 -7.19092,-0.91971 -10.80323,-0.87386 -2.60921,0.0344 -5.21445,0.37551 -7.7842,0.82962 -2.21288,0.39126 -6.54273,1.62618 -6.54273,1.62618 l -2.0586,1.31271 -8.81455,14.12433 11.94615,4.27733 -20.6254,-7.68709 8.60285,3.12492 17.46365,-30.24763 m 221.44295,135.31029 -0.49229,-32.59393 m -10.33998,39.64213 -1.36778,-33.83033 m 20.82214,14.29624 c -9.78645,4.81694 -20.49336,9.2056 -31.38096,13.5104 m 29.65211,-27.79009 c -10.09962,6.50343 -19.92275,11.05458 -29.65175,14.94169 m 45.58904,5.51983 c 0,0 12.57116,-0.37612 18.80556,-1.12656 9.55548,-1.15024 17.23188,-1.85589 24.61188,-3.29316 3.01407,-0.58693 9.01285,-1.90653 9.01285,-1.90653 l 1.64653,7.88622 c 0,0 -1.91933,-8.70955 -2.77295,-13.08591 -0.88209,-4.52162 -2.02067,-9.01693 -2.42676,-13.60589 -0.22413,-2.53211 7e-5,-7.6262 7e-5,-7.6262 l 5.4596,-2.51326 c 0,0 -6.80969,3.08551 -10.3994,4.07313 -6.49256,1.78671 -13.28851,2.19349 -19.93196,3.29316 -6.09533,1.00922 -18.28558,3.03308 -18.28558,3.03308 0,0 26.05349,-2.50657 38.47752,-6.326 1.64304,-0.50502 4.67968,-2.16682 4.67968,-2.16682 l 0.26007,-23.18631 m 64.57496,45.73316 c 0,0 12.04504,-3.61649 17.87289,-5.9552 8.93228,-3.58443 16.16464,-6.25247 22.92122,-9.55103 2.75924,-1.34706 8.21204,-4.17446 8.21204,-4.17446 l 3.63182,7.19138 c 0,0 -4.10822,-7.91589 -6.06557,-11.92214 -2.02227,-4.13933 -4.2856,-8.1866 -5.86556,-12.51426 -0.87151,-2.38814 -1.97349,-7.36649 -1.97349,-7.36649 l 4.62309,-3.84058 c 0,0 -5.7792,4.74293 -8.99104,6.62593 -5.80898,3.40609 -12.2678,5.55798 -18.40045,8.33965 -5.62646,2.55233 -16.87746,7.66251 -16.87746,7.66251 0,0 24.51702,-9.16422 35.52904,-16.0696 1.45642,-0.91285 3.95947,-3.30371 3.95947,-3.30371 l -5.74963,-22.46367 M 73.607879,597.4247 26.799234,585.26886 c 0,0 2.781845,7.74442 4.583756,11.48053 0.761911,1.5786 1.7044,3.29545 2.941155,4.53793 1.193178,1.19827 2.865845,1.9084 4.500534,2.34114 1.958977,0.52491 4.1452,0.8386 6.080022,0.23051 1.4462,-0.45433 2.776866,-1.27822 3.457911,-2.63242 0.878155,-1.74683 0.915511,-3.54938 0.874222,-5.5042 -0.028,-1.34429 -0.857022,-4.49783 -0.857022,-4.49783 m 9.580511,-14.31508 8.107956,-34.61205 -28.895889,-8.01195 -5.530867,36.37933 5.463556,-36.12813 -24.307445,-5.34689 -8.2415333,41.30531 M -0.81432148,713.14266 15.975745,681.80835 -9.8618993,666.59066 -24.619944,700.29897 -9.9918993,666.81599 -32.087255,655.36004 -50.738544,693.12481 m 133.001378,-231.60435 -32.594155,0.4924 m 39.642088,10.33973 -33.830333,1.36787 M 69.776679,452.8987 c 4.816955,9.78614 9.205622,20.49311 13.510355,31.38051 M 55.497056,454.62739 c 6.503423,10.09969 11.054556,19.9228 14.941734,29.65171 m 6.559733,-91.02889 -58.409956,0.26027 c 0,0 0.513156,5.29611 1.091956,7.88613 0.732644,3.27785 1.7246,6.51171 2.998511,9.61949 1.430111,3.48791 3.238956,6.8222 5.182378,10.0526 1.722489,2.86338 3.568089,5.67631 5.719644,8.23278 1.986178,2.36009 4.204734,4.53967 6.586356,6.49964 2.375778,1.95527 4.825222,3.92663 7.6262,5.1998 1.983822,0.90158 4.153067,1.4898 6.326267,1.6464 2.348177,0.16978 4.8578,0.15178 7.0196,-0.77986 2.747911,-1.18458 4.957044,-3.48596 6.846266,-5.80618 2.285534,-2.80709 3.865111,-6.16847 5.199689,-9.53273 1.178267,-2.97016 1.918511,-6.11874 2.426533,-9.27307 0.506578,-3.14342 0.698689,-6.35002 0.606578,-9.53273 -0.06867,-2.38538 -0.452266,-4.75605 -0.866578,-7.10625 -0.422111,-2.39455 -1.6466,-7.10624 -1.6466,-7.10624 M -46.558833,69.644724 -80.490521,104.10417 c 0,0 8.097888,1.46311 12.234222,1.7706 1.7482,0.12978 3.706222,0.17178 5.400711,-0.27807 1.634355,-0.43378 3.085533,-1.52782 4.277644,-2.72711 1.434045,-1.43393 2.7988,-3.170532 3.239734,-5.150043 0.329577,-1.479667 0.2814,-3.044023 -0.550978,-4.311 -1.073667,-1.633867 -2.615978,-2.567489 -4.329489,-3.509045 -1.178222,-0.647978 -4.323867,-1.506911 -4.323867,-1.506911 m -38.900046,-47.482844 -41.1182,41.485822 c 0,0 4.10789,3.3822 6.34851,4.804289 2.83583,1.799689 5.82409,3.384844 8.92234,4.681578 3.4776,1.455288 7.11437,2.533711 10.77286,3.443888 3.24251,0.806778 6.53667,1.490578 9.8658,1.777156 3.07325,0.264178 6.18303,0.236711 9.253136,-0.06089 3.062378,-0.297489 6.188534,-0.635444 9.069267,-1.7158 2.040222,-0.7654 3.990178,-1.883222 5.637667,-3.309111 1.7804,-1.540333 3.542177,-3.327733 4.412066,-5.515111 1.105334,-2.780778 1.040223,-5.970156 0.735378,-8.946711 -0.368689,-3.600867 -1.628622,-7.094756 -3.063955,-10.417422 -1.266956,-2.933267 -2.969867,-5.683 -4.841045,-8.272667 -1.864533,-2.580956 -3.996155,-4.984356 -6.311733,-7.169667 -1.735222,-1.638133 -3.683,-3.043444 -5.637667,-4.412111 -1.991684,-1.394644 -6.189174,-3.860555 -6.189174,-3.860555 M -5.692477,154.89786 -56.146944,184.3279 c 0,0 3.092511,4.3302 4.888734,6.28374 2.2734,2.47224 4.749577,4.77684 7.406644,6.83126 2.982422,2.30587 6.216156,4.28882 9.514445,6.11482 2.923222,1.61847 5.928133,3.13158 9.069644,4.27009 2.900178,1.0506 5.911111,1.82887 8.953667,2.33574 3.035044,0.50535 6.142111,0.98797 9.204333,0.69002 2.1688,-0.21133 4.3416222,-0.78633 6.30202219,-1.73718 2.11844441,-1.02718 4.28277781,-2.29758 5.68917781,-4.18529 1.7873777,-2.39995 2.5499555,-5.49742 3.0258666,-8.45158 0.5758667,-3.57364 0.2631111,-7.27446 -0.2633111,-10.85544 -0.4646,-3.16124 -1.3978,-6.258 -2.5349778,-9.24376 -1.1329777,-2.97564 -2.5699111,-5.84868 -4.24102218,-8.55891 -1.25208889,-2.03144 -2.76980002,-3.89295 -4.30362222,-5.72091 -1.5628444,-1.86264 -4.9791111,-5.33091 -4.9791111,-5.33091 M -979.8327,558.41106 l 46.61542,-12.87691 c 0,0 -6.28137,-5.31609 -9.70987,-7.65078 -1.44918,-0.98613 -3.1238,-2.00147 -4.81616,-2.45938 -1.6333,-0.43755 -3.43608,-0.21978 -5.0681,0.22305 -1.95893,0.52477 -4.00905,1.34626 -5.3807,2.84017 -1.02525,1.11667 -1.76577,2.49567 -1.67842,4.00878 0.11284,1.95171 0.98182,3.53158 1.99495,5.20382 0.69643,1.15023 2.99112,3.46689 2.99112,3.46689 m 65.75885,44.24109 c 0,0 -19.35633,-2.07627 -29.0472,-2.98324 -6.35959,-0.595 -12.73218,-1.04187 -19.09364,-1.61263 -4.4518,-0.39964 -13.34895,-1.26788 -13.34895,-1.26788 l -0.10778,-1.40669 c 0,0 4.46294,-4.92196 6.85764,-7.22069 4.15663,-3.99007 8.52966,-7.75834 13.01008,-11.38116 3.82068,-3.08951 7.88231,-5.86902 11.81288,-8.81766 3.45205,-2.58956 7.06703,-4.97838 10.33753,-7.79409 2.13787,-1.84083 6.04293,-5.92556 6.04293,-5.92556 m -8.51484,46.42307 c 0,0 -3.0164,-6.22456 -4.71697,-9.23329 -2.00569,-3.54789 -4.4899,-6.81322 -6.4601,-10.381 -1.62138,-2.93578 -2.87398,-6.06196 -4.39856,-9.04945 -1.44294,-2.82731 -4.49264,-8.39606 -4.49264,-8.39606 m 767.312,-565.8190022 -15.87069,28.4735552 m 28.77558,-29.161155 -15.7306,29.981844 M -177.6431,-2.9552533 c 10.88347,0.7215111 22.35036,2.27424441 33.93151,3.9899333 m -39.57422,9.241 c 11.99827,-0.5822444 22.78093,0.387822 33.15007,1.885978 m -39.11598,-27.3562 c 0,0 -0.5298,-2.994822 -1.37869,-4.198378 -1.59651,-2.263689 -4.05702,-3.919733 -6.56658,-5.092022 -5.42378,-2.533934 -15.07369,-3.1926 -21.93298,-1.355334 -3.22784,0.864556 -6.21593,2.531645 -9.0698,4.270089 -2.19002,1.333734 -4.25268,2.907511 -6.10484,4.680889 -8.94704,8.1420002 -12.25927,18.1188669 -7.67767,29.590445 1.00411,2.193133 2.52269,4.160577 4.20465,5.889955 7.0892,7.232622 16.66698,10.014422 26.54826,9.653734 3.10396,-0.137112 6.16683,-0.772867 9.23485,-1.262712 2.24627,-0.358866 6.713,-1.227911 6.713,-1.227911 m -370.78885,-119.327769 12.87692,46.615423 c 0,0 5.31606,-6.281431 7.65048,-9.709818 0.98645,-1.449216 2.0018,-3.123882 2.45956,-4.816242 0.44113,-1.63238 0.21956,-3.435971 -0.22287,-5.068007 -0.52489,-1.958947 -1.34637,-4.009129 -2.84024,-5.380782 -1.1166,-1.025322 -2.49553,-1.765789 -4.00893,-1.678342 -1.95178,0.1126 -3.53149,0.981771 -5.20374,1.994911 -1.1502,0.696457 -3.46686,2.991164 -3.46686,2.991164 m -21.43742,1.973196 c 0,0 -2.49226,-1.743036 -3.94354,-1.99388 -2.72961,-0.471925 -5.64054,0.09653 -8.24398,1.042673 -5.62688,2.043289 -12.91619,8.401249 -16.46737,14.55042 -1.67102,2.893951 -2.60512,6.185484 -3.39393,9.432662 -0.60542,2.491774 -0.9511,5.063065 -1.00688,7.626769 -0.56918,12.083822 4.14337,21.480622 15.49471,26.3526001 2.26083,0.8408889 4.72592,1.1580445 7.13791,1.1915778 10.12709,0.1011111 18.86669,-4.7040889 25.59878,-11.9461329 2.09792,-2.291734 3.81412,-4.907023 5.63714,-7.422934 1.33462,-1.842089 3.8786,-5.614966 3.8786,-5.614966 m 120.84066,-50.259147 c 0,0 -1.9562,-2.328605 -3.29315,-2.946462 -2.51445,-1.162294 -5.47338,-1.366254 -8.23285,-1.126556 -5.96411,0.5172 -14.65048,4.771887 -19.67217,9.792551 -2.36314,2.362734 -4.11731,5.300465 -5.71967,8.232794 -1.22969,2.250124 -2.22918,4.64434 -2.94649,7.106353 -3.67733,11.524671 -1.55738,21.820978 8.1462,29.464871 1.96613,1.397384 4.265,2.341829 6.58627,2.998518 9.75573,2.719066 19.44126,0.3392 27.81835,-4.9138 2.61954,-1.670529 4.95416,-3.752542 7.36625,-5.710916 1.76591,-1.433933 5.19969,-4.419811 5.19969,-4.419811 M -731.0658,-1.9231422 c 8.98976,16.5747332 19.70389,31.9680002 30.9606,47.0390892 0,0 7.88657,-5.017689 11.53727,-7.921978 3.93673,-3.132156 7.69226,-6.521711 11.1208,-10.203111 2.85717,-3.068511 5.5333,-6.337289 7.82235,-9.849889 1.77202,-2.719422 4.17223,-5.393556 4.53002,-8.6194668 0.19758,-1.7831333 -0.4443,-3.6779778 -1.39913,-5.1965778 -1.02608,-1.6320444 -2.57006,-3.11446662 -4.38089,-3.7748444 -2.77043,-1.0104889 -5.95553,-0.47915556 -8.84617,0.10333333 -2.6872,0.54166667 -5.08741,2.04386667 -7.61812,3.09744447 -2.87453,1.1965333 -5.86682,2.1577333 -8.59375,3.6607333 -3.12185,1.7210889 -5.88052,4.0315329 -8.79799,6.0802219 -3.2064,2.251289 -10.54082,9.174689 -10.54082,9.174689 0,0 9.41429,-10.159444 13.17225,-14.4963998 2.53349,-2.9240666 4.83525,-6.0578222 6.93467,-9.3075333 1.55373,-2.4053556 3.46989,-4.7339556 4.1695,-7.5107111 0.40447,-1.6051558 0.46139,-3.3964448 -0.0652,-4.9658448 -0.49923,-1.487955 -1.44249,-2.988533 -2.79018,-3.792777 -1.00736,-0.601312 -2.31202,-0.470312 -3.48489,-0.489734 -2.49574,-0.04133 -5.01635,0.222934 -7.4456,0.796422 -3.22165,0.760245 -6.29133,2.099378 -9.30409,3.470334 -2.97216,1.352466 -5.80938,2.993466 -8.61077,4.6712442 -4.23247,2.5353111 -12.3629,8.1384445 -12.3629,8.1384445 m -79.70511,37.0162663 34.45949,33.931667 c 0,0 1.46312,-8.097889 1.77062,-12.234333 0.12964,-1.7482 0.17171,-3.706111 -0.27802,-5.400778 -0.43422,-1.634111 -1.52782,-3.0854 -2.72711,-4.277556 -1.43408,-1.433933 -3.17051,-2.7988 -5.15017,-3.239711 -1.47953,-0.329666 -3.04397,-0.2814 -4.31091,0.550978 -1.63387,1.073578 -2.56751,2.616 -3.50914,4.329489 -0.64795,1.178267 -1.50678,4.323867 -1.50678,4.323867 m -48.3205,42.066222 c 12.97338,13.683222 27.30645,25.778982 42.08033,37.423042 0,0 6.31916,-6.8878 9.09378,-10.63804 2.99197,-4.04451 5.74218,-8.29036 8.10112,-12.73385 1.96558,-3.70346 3.70457,-7.55346 5.00644,-11.538797 1.00785,-3.0854 2.63416,-6.2896 2.14475,-9.498155 -0.27061,-1.7736 -1.38095,-3.437711 -2.69639,-4.657445 -1.41348,-1.310755 -3.2886,-2.343089 -5.20859,-2.512222 -2.93767,-0.259 -5.87665,1.078511 -8.51789,2.389845 -2.45531,1.218822 -4.38508,3.290955 -6.5568,4.963555 -2.46693,1.899889 -5.10846,3.602822 -7.35349,5.7602 -2.56998,2.4704 -4.63672,5.416178 -6.92458,8.150179 -2.51447,3.00449 -7.80703,11.59018 -7.80703,11.59018 0,0 6.4641,-12.24987 8.97153,-17.411626 1.69028,-3.480111 3.10253,-7.1028 4.28933,-10.785133 0.87817,-2.7256 2.12646,-5.470755 2.08354,-8.333911 -0.0247,-1.655244 -0.43343,-3.400111 -1.34815,-4.779933 -0.86741,-1.308 -2.16684,-2.513267 -3.67681,-2.941289 -1.12886,-0.319222 -2.35499,0.144 -3.49282,0.428955 -2.42145,0.606023 -4.78778,1.513667 -6.98587,2.6962 -2.91507,1.568245 -5.53352,3.656134 -8.08877,5.7602 -2.52093,2.075689 -4.83674,4.395111 -7.10845,6.740823 -3.432,3.544333 -9.8352,11.0608 -9.8352,11.0608 m -25.45617,146.289024 c 0,0 -12.2188,-15.15496 -18.43012,-22.64889 -4.07616,-4.91747 -8.26625,-9.73969 -12.36081,-14.64165 -2.86556,-3.43024 -8.54263,-10.33562 -8.54263,-10.33562 l 0.91849,-1.07093 c 0,0 6.63609,-0.32438 9.95486,-0.25658 5.76051,0.11756 11.51735,0.54533 17.24723,1.1516 4.88623,0.5172 9.72337,1.42371 14.58794,2.11809 4.27213,0.60971 8.51739,1.47702 12.82104,1.79853 2.81323,0.21 8.46301,0.0827 8.46301,0.0827 m -38.84692,26.80511 c 0,0 2.26838,-6.53435 3.19341,-9.86391 1.0906,-3.9272 1.64287,-7.99264 2.77255,-11.90858 0.92945,-3.22246 2.25423,-6.31878 3.28845,-9.50931 0.97881,-3.01953 2.76008,-9.11367 2.76008,-9.11367 m -21.06842,-29.15346 28.47356,15.87069 m -29.1612,-28.77554 29.98189,15.73054 m -22.79187,10.88417 c 0.72138,-10.88348 2.27421,-22.35035 3.98992,-33.93144 m 9.24099,39.57422 c -0.58229,-11.99844 0.38779,-22.78093 1.88592,-33.15009 m -29.98791,199.91234 c 0,0 -15.72497,-11.47596 -23.66417,-17.10678 -5.20998,-3.69509 -10.50535,-7.26838 -15.72915,-10.94358 -3.65567,-2.57164 -10.92656,-7.77247 -10.92656,-7.77247 l 0.60995,-1.27215 c 0,0 6.32608,-2.03111 9.5493,-2.82453 5.59474,-1.37707 11.26604,-2.45398 16.95766,-3.35154 4.85354,-0.76493 9.76046,-1.14124 14.639,-1.72958 4.28439,-0.51673 8.60945,-0.77782 12.84969,-1.58102 2.77173,-0.52524 8.19608,-2.1104 8.19608,-2.1104 m -30.58558,35.94614 c 0,0 0.49991,-6.8986 0.53158,-10.35469 0.037,-4.07543 -0.48175,-8.14523 -0.40406,-12.22009 0.0637,-3.35347 0.54205,-6.68682 0.71523,-10.03638 0.16393,-3.16996 0.30725,-9.51758 0.30725,-9.51758"
       inkscape:label="Notes"
       inkscape:transform-center-x="-0.64403539"
       inkscape:transform-center-y="-0.25321104" />
    <path
       id="path99"
       style="display:inline;fill:none;fill-rule:evenodd;stroke:#000000;stroke-width:2.4044;stroke-linecap:round;stroke-linejoin:round;stroke-dasharray:none;stroke-opacity:1"
       inkscape:transform-center-x="1.5110286"
       inkscape:transform-center-y="-2.3259254"
       transform="matrix(0.93578907,0,0,0.93578907,-78.925698,123.07333)"
       d="m 320.10895,131.38085 c 22.72413,-2.9917 45.74239,-2.9917 68.46652,0 M 146.26848,231.7477 c 13.95294,-18.18382 30.22931,-34.46016 48.41316,-48.41313 18.18385,-13.95298 38.11824,-25.46209 59.29376,-34.23325 M 112.03517,491.77515 c -8.77118,-21.17551 -14.728742,-43.40949 -17.720419,-66.13361 -2.991685,-22.72413 -2.991685,-45.74236 0,-68.46649 M 320.10887,651.43574 c -22.72412,-2.99169 -44.95806,-8.94924 -66.13358,-17.72039 -21.17552,-8.77116 -41.10992,-20.28027 -59.29374,-34.23325 m 260.02741,34.23325 c -21.17552,8.77115 -43.40944,14.7287 -66.13357,17.72039 M 614.3696,425.64162 c -2.9917,22.72412 -8.94925,44.9581 -17.72048,66.13361 -8.77124,21.17551 -20.28035,41.10992 -34.23333,59.29374 M 514.00277,183.33465 c 18.18381,13.95297 34.46017,30.22931 48.41319,48.41313 13.95297,18.18382 25.46209,38.11831 34.23324,59.29382"
       inkscape:label="Major Ring" />
    <path
       id="path135"
       style="display:inline;fill:none;fill-rule:evenodd;stroke:#000000;stroke-width:2.4044;stroke-linecap:round;stroke-linejoin:round;stroke-dasharray:none;stroke-opacity:1"
       inkscape:transform-center-x="1.2216535"
       inkscape:transform-center-y="-0.51549274"
       transform="matrix(0,-0.93578907,0.93578907,0,681.87806,821.97782)"
       d="m 330.65513,-647.02234 c 16.46077,-2.1671 33.13456,-2.1671 49.59533,0 m -175.52055,72.70294 c 10.10715,-13.17186 21.89721,-24.96202 35.06917,-35.06912 13.17189,-10.10711 27.61184,-18.444 42.95078,-24.79761 m -102.81762,248.22349 c -6.35362,-15.33894 -10.66912,-31.44458 -12.83626,-47.90534 -2.16705,-16.46076 -2.16705,-33.13454 9e-5,-49.59528 m 163.55906,213.15449 c -16.46077,-2.16713 -32.56642,-6.48263 -47.90543,-12.83625 -15.33894,-6.35362 -29.7789,-14.69052 -42.95078,-24.79767 m 188.35689,24.79767 c -15.33901,6.35362 -31.44466,10.66912 -47.90543,12.83625 m 163.55906,-163.55912 c -2.16705,16.46075 -6.48255,32.5664 -12.83617,47.90533 -6.35362,15.33894 -14.69052,29.77889 -24.79767,42.95078 m -35.06909,-266.37665 c 13.17188,10.10713 24.96202,21.89729 35.06917,35.06917 10.10715,13.17188 18.44405,27.61181 24.79767,42.95077"
       inkscape:label="Minor Ring" />
    <circle
       style="fill:none;fill-rule:evenodd;stroke:#000000;stroke-width:0.540735;stroke-linecap:round;stroke-linejoin:round;stroke-dasharray:3.24441, 3.24441;stroke-dashoffset:0;stroke-opacity:1"
       id="path121"
       cx="288"
       cy="576"
       r="15.32793"
       transform="matrix(0.57791675,0,0,0.57791675,86.684997,157.74496)"
       inkscape:label="Center" />
    <circle
       style="fill:none;fill-rule:evenodd;stroke:#000000;stroke-width:0.355556;stroke-linecap:round;stroke-linejoin:round;stroke-dasharray:2.13333, 2.13333;stroke-dashoffset:0;stroke-opacity:1"
       id="path122"
       cx="288"
       cy="576"
       r="288"
       transform="matrix(0.87890625,0,0,0.87890625,2.0711778e-5,-15.624992)"
       inkscape:label="Perimeter" />
  </g>
  <g
     inkscape:groupmode="layer"
     id="layer1"
     inkscape:label="Annotation Wheel"
     style="display:inline"
     transform="translate(10.625,10.625)">
    <circle
       style="fill:none;fill-rule:evenodd;stroke:#000000;stroke-width:0.355556;stroke-linecap:round;stroke-linejoin:round;stroke-dasharray:2.13333, 2.13333;stroke-dashoffset:0;stroke-opacity:1"
       id="path123"
       cx="864"
       cy="288"
       r="288"
       inkscape:label="Perimeter"
       transform="matrix(0.87890625,0,0,0.87890625,-43.749979,7.7272726e-6)" />
    <circle
       style="fill:none;fill-rule:evenodd;stroke:#000000;stroke-width:0.540735;stroke-linecap:round;stroke-linejoin:round;stroke-dasharray:3.24441, 3.24441;stroke-dashoffset:0;stroke-opacity:1"
       id="circle123"
       cx="288"
       cy="576"
       r="15.32793"
       transform="matrix(0.57791675,0,0,0.57791675,549.185,-79.755039)"
       inkscape:label="Center"
       inkscape:transform-center-x="-4e-06" />
    <path
       id="circle5"
       style="display:inline;fill:none;fill-rule:evenodd;stroke:#000000;stroke-width:5.34308;stroke-linecap:round;stroke-linejoin:round;stroke-dasharray:none"
       inkscape:transform-center-x="-8.855519"
       inkscape:transform-center-y="8.0405922"
       transform="matrix(0.42110508,0,0,0.42110508,443.03866,303.22551)"
       d="m 649.11651,208.27066 a 2.8996506,2.8996506 0 0 1 -2.89965,2.89965 2.8996506,2.8996506 0 0 1 -2.89965,-2.89965 2.8996506,2.8996506 0 0 1 2.89965,-2.89965 2.8996506,2.8996506 0 0 1 2.89965,2.89965 z M 363.0903,43.133156 a 2.8996506,2.8996506 0 0 1 -2.89965,2.89965 2.8996506,2.8996506 0 0 1 -2.89965,-2.89965 2.8996506,2.8996506 0 0 1 2.89965,-2.89965 2.8996506,2.8996506 0 0 1 2.89965,2.89965 z M 979.39142,-122.00403 a 2.8996506,2.8996506 0 0 1 -2.89965,2.89965 2.8996506,2.8996506 0 0 1 -2.89965,-2.89965 2.8996506,2.8996506 0 0 1 2.89965,-2.89965 2.8996506,2.8996506 0 0 1 2.89965,2.89965 z M 814.25417,-408.03034 a 2.8996506,2.8996506 0 0 1 -2.89965,2.89965 2.8996506,2.8996506 0 0 1 -2.89965,-2.89965 2.8996506,2.8996506 0 0 1 2.89965,-2.89965 2.8996506,2.8996506 0 0 1 2.89965,2.89965 z m -451.16369,120.88873 a 2.8996506,2.8996506 0 0 1 -2.89965,2.89965 2.8996506,2.8996506 0 0 1 -2.89965,-2.89965 2.8996506,2.8996506 0 0 1 2.89965,-2.89965 2.8996506,2.8996506 0 0 1 2.89965,2.89965 z"
       inkscape:label="Dots" />
    <path
       id="path624"
       style="display:inline;fill:none;stroke:#000000;stroke-width:2.95942;stroke-linecap:round;stroke-linejoin:round;stroke-dasharray:none;stroke-opacity:1"
       inkscape:transform-center-x="-2.7819902"
       inkscape:transform-center-y="-3.8658971"
       transform="matrix(0.76028393,0,0,0.76028393,-318.82224,-601.18958)"
       d="m 1267.3425,838.27663 c 0.7302,10.00618 -0.078,20.78949 -0.2996,29.118 m -3.7622,-20.77605 c 0,0 -2.0267,2.29089 -2.4952,3.70388 -0.393,1.18546 -0.506,2.39841 -0.4593,3.64641 0.04,1.11981 0.2264,2.41282 0.6904,3.43276 0.5734,1.25976 1.6805,2.24202 2.776,3.08812 0.688,0.53144 1.4484,1.16147 2.3171,1.19693 1.4545,0.0594 2.8318,-0.85481 4.0304,-1.68067 1.0099,-0.6958 1.8398,-1.65657 2.5325,-2.66852 0.8184,-1.19561 1.5859,-2.50696 1.8563,-3.93045 0.2678,-1.40944 0.2599,-2.96669 -0.2829,-4.29468 -0.5992,-1.46566 -1.766,-2.74492 -3.0976,-3.60138 -0.6818,-0.43831 -1.5324,-0.56679 -2.3353,-0.67716 -0.7155,-0.0983 -1.466,-0.15623 -2.1664,0.0196 -1.2287,0.30856 -3.366,1.76512 -3.366,1.76512 m 312.0071,491.88256 c 0,0 -2.1054,2.6933 -2.9881,4.1524 -1.0634,1.7587 -1.7701,3.712 -2.7594,5.5134 -0.8563,1.5591 -2.7452,4.5758 -2.7452,4.5758 0,0 -0.3297,-1.9712 -0.6605,-2.9091 -0.6397,-1.812 -1.6512,-3.4711 -2.5348,-5.1776 -0.7656,-1.4793 -1.4585,-3.0085 -2.3968,-4.3849 -0.8774,-1.2871 -1.9842,-2.4022 -2.9971,-3.5855 -0.5803,-0.678 -1.1314,-1.3841 -1.7637,-2.0135 -0.6924,-0.6888 -2.2135,-1.92 -2.2135,-1.92 m 100.9106,-288.9463 c 0,0 1.2799,3.1701 2.102,4.664 0.9915,1.8003 2.3297,3.389 3.3952,5.1464 0.922,1.5211 2.5901,4.6654 2.5901,4.6654 0,0 -1.8719,-0.7001 -2.8496,-0.8825 -1.8891,-0.3521 -3.8317,-0.3057 -5.7514,-0.3937 -1.6639,-0.077 -3.3347,-0.2411 -4.9958,-0.1167 -1.5533,0.1162 -3.0725,0.5172 -4.6037,0.8028 -0.8772,0.1635 -1.7643,0.2877 -2.6256,0.5206 -0.9427,0.2552 -2.7695,0.957 -2.7695,0.957 m -574.3263,-17.0206 c 0,0 0.4768,-3.3853 0.5116,-5.0902 0.042,-2.0548 -0.323,-4.0998 -0.367,-6.1545 -0.038,-1.7783 0.09,-5.3353 0.09,-5.3353 0,0 1.2712,1.5423 2.0266,2.1891 1.4599,1.2495 3.1655,2.1805 4.784,3.2166 1.4027,0.8982 2.7674,1.8761 4.2682,2.5989 1.4033,0.676 2.9194,1.0884 4.3883,1.6067 0.8415,0.297 1.6718,0.633 2.5342,0.8619 0.9439,0.2502 2.8769,0.5559 2.8769,0.5559 m -1.8669,38.2098 16.0918,-0.21 c 0,0 -7.5465,-0.052 -11.0178,-1.3297 -1.2477,-0.4595 -2.4733,-1.1829 -3.3244,-2.2045 -0.8931,-1.0723 -1.3342,-2.489 -1.6446,-3.8495 -0.1715,-0.7511 -0.3036,-1.5648 -0.105,-2.3093 0.1568,-0.588 0.5133,-1.1491 0.9801,-1.5396 0.8221,-0.6886 1.9191,-1.0364 2.9746,-1.2248 3.9855,-0.7111 12.1372,0.455 12.1372,0.455 0,0 -7.7841,0.2973 -11.2274,-1.2249 -1.2246,-0.541 -2.1775,-1.6106 -3.0096,-2.6593 -2.7881,-3.5161 -2.0394,-7.2902 -0.8749,-8.4443 2.2179,-2.1981 9.8618,-0.6325 14.7815,-0.7701 m 474.6378,251.0983 -14.0409,-7.864 c 0,0 6.5094,3.8183 8.8768,6.6604 0.8508,1.0218 1.5505,2.2611 1.7766,3.5714 0.2373,1.3751 -0.089,2.8226 -0.5003,4.156 -0.227,0.7363 -0.5195,1.507 -1.0638,2.0525 -0.4297,0.4308 -1.0192,0.7384 -1.6186,0.8433 -1.0561,0.1852 -2.18,-0.062 -3.1883,-0.4266 -3.8073,-1.377 -10.2838,-6.4627 -10.2838,-6.4627 0,0 6.89,3.6347 9.1109,6.6746 0.7899,1.0808 1.0805,2.4834 1.2766,3.8078 0.6565,4.439 -1.8788,7.3332 -3.4645,7.7503 -3.0198,0.7947 -8.8568,-4.3831 -13.1859,-6.7238 m -99.0414,66.9635 c 0,0 0.19,6.1228 0.1359,9.1838 -0.04,2.2294 -0.3442,4.4511 -0.3358,6.6809 0.012,3.1257 0.5411,9.3621 0.5411,9.3621 0,0 -3.3262,-1.4278 -4.9196,-2.2816 -2.2807,-1.2221 -4.4182,-2.6937 -6.6185,-4.0548 -1.7435,-1.0782 -3.4757,-2.1746 -5.2161,-3.2577 -2.5479,-1.5854 -7.651,-4.7438 -7.651,-4.7438 8.0306,-3.1091 16.0687,-5.8281 24.064,-10.8889 z M 1412.2,852.38056 c 0,0 2.8968,-5.39759 4.4744,-8.02155 1.1488,-1.91095 2.5234,-3.68263 3.631,-5.61779 1.5527,-2.71298 4.2123,-8.37834 4.2123,-8.37834 0,0 2.1669,2.8996 3.1199,4.4357 1.364,2.19855 2.4794,4.54186 3.7043,6.82072 0.9706,1.80557 1.9228,3.62108 2.8885,5.42925 1.4138,2.64695 4.2542,7.93394 4.2542,7.93394 -8.5095,-1.32284 -16.8301,-2.98714 -26.2846,-2.60193 z m -248.6584,503.34074 c 0,0 -2.8703,-1.8571 -4.4023,-2.6059 -1.8464,-0.9025 -3.855,-1.4324 -5.7374,-2.2572 -1.6292,-0.7139 -4.8022,-2.3266 -4.8022,-2.3266 0,0 1.9341,-0.504 2.8387,-0.9171 1.7479,-0.7984 3.3103,-1.9538 4.9312,-2.9859 1.4052,-0.8946 2.8665,-1.721 4.1539,-2.7781 1.2038,-0.9885 2.2159,-2.1903 3.3043,-3.3046 0.6236,-0.6382 1.2777,-1.2502 1.8483,-1.9361 0.6243,-0.751 1.7151,-2.3757 1.7151,-2.3757 m 454.7513,-309.0888 -13.8308,8.2277 c 0,0 6.5613,-3.7282 10.2064,-4.3573 1.3103,-0.2259 2.7334,-0.2122 3.9813,0.2471 1.3094,0.482 2.3997,1.4886 3.3489,2.5112 0.5243,0.5648 1.0454,1.2035 1.2457,1.9476 0.1582,0.5875 0.1299,1.2519 -0.079,1.8234 -0.3677,1.0072 -1.1437,1.8569 -1.9636,2.5478 -3.0962,2.6087 -10.7388,5.6747 -10.7388,5.6747 0,0 6.5928,-4.1495 10.3358,-4.553 1.331,-0.1436 2.6911,0.306 3.936,0.7984 4.1725,1.6509 5.4113,5.2936 4.9797,6.8755 -0.8217,3.0125 -8.2243,5.4786 -12.4159,8.0574"
       inkscape:label="Qualities" />
    <path
       id="path120"
       style="display:inline;fill:none;fill-rule:evenodd;stroke:#000000;stroke-width:2.4044;stroke-linecap:round;stroke-linejoin:round;stroke-dasharray:none;stroke-opacity:1"
       transform="matrix(0,-0.93578907,0.93578907,0,683.64602,820.62047)"
       d="m 478.24836,-34.310707 5.61201,-10.65995 m 134.79846,-90.586823 a 1.1273495,1.1273495 0 0 1 -1.12735,-1.12735 1.1273495,1.1273495 0 0 1 1.12735,-1.12735 1.1273495,1.1273495 0 0 1 1.12735,1.12735 1.1273495,1.1273495 0 0 1 -1.12735,1.12735 z M 516.20028,178.64416 a 1.1273495,1.1273495 0 0 1 -1.12735,-1.12735 1.1273495,1.1273495 0 0 1 1.12735,-1.12735 1.1273495,1.1273495 0 0 1 1.12735,1.12735 1.1273495,1.1273495 0 0 1 -1.12735,1.12735 z m 7.03603,4.0623 a 1.1273495,1.1273495 0 0 1 -1.12735,-1.12735 1.1273495,1.1273495 0 0 1 1.12735,-1.12735 1.1273495,1.1273495 0 0 1 1.12735,1.12735 1.1273495,1.1273495 0 0 1 -1.12735,1.12735 z m 7.03605,4.06226 a 1.1273495,1.1273495 0 0 1 -1.12735,-1.12735 1.1273495,1.1273495 0 0 1 1.12735,-1.12735 1.1273495,1.1273495 0 0 1 1.12735,1.12735 1.1273495,1.1273495 0 0 1 -1.12735,1.12735 z m 159.8111,-2.74714 a 1.1273495,1.1273495 0 0 1 -1.12735,-1.12735 1.1273495,1.1273495 0 0 1 1.12735,-1.12735 1.1273495,1.1273495 0 0 1 1.12735,1.12735 1.1273495,1.1273495 0 0 1 -1.12735,1.12735 z m 7.03604,-4.06227 a 1.1273495,1.1273495 0 0 1 -1.12735,-1.12735 1.1273495,1.1273495 0 0 1 1.12735,-1.12735 1.1273495,1.1273495 0 0 1 1.12735,1.12735 1.1273495,1.1273495 0 0 1 -1.12735,1.12735 z m 64.72882,-219.060427 a 1.1273495,1.1273495 0 0 1 -1.12735,-1.12735 1.1273495,1.1273495 0 0 1 1.12735,-1.12735 1.1273495,1.1273495 0 0 1 1.12735,1.12735 1.1273495,1.1273495 0 0 1 -1.12735,1.12735 z m -4.06226,-7.03604 a 1.1273495,1.1273495 0 0 1 -1.12735,-1.12735 1.1273495,1.1273495 0 0 1 1.12735,-1.12735 1.1273495,1.1273495 0 0 1 1.12735,1.12735 1.1273495,1.1273495 0 0 1 -1.12735,1.12735 z m 15.29635,14.56898 c 0,0 -1.33686,-1.27165 -2.17847,-1.58485 -0.70611,-0.26283 -1.43488,-0.35732 -2.18823,-0.35642 -0.67596,7.3e-4 -1.45954,0.0838 -2.08453,0.34139 -0.77191,0.31832 -1.38821,0.9643 -1.92218,1.60622 -0.33536,0.40314 -0.73174,0.84787 -0.77205,1.37077 -0.0676,0.87549 0.45359,1.72581 0.92532,2.46636 0.39745,0.62404 0.95857,1.14523 1.55353,1.58493 0.70295,0.5194 1.47677,1.01069 2.329,1.2047 0.84385,0.19215 1.78282,0.22132 2.59524,-0.0772 0.89666,-0.32921 1.69325,-1.00476 2.23862,-1.78878 0.27908,-0.40151 0.37509,-0.91149 0.45912,-1.39311 0.0748,-0.42922 0.12614,-0.88037 0.0353,-1.30642 -0.15923,-0.74754 -0.99075,-2.06777 -0.99075,-2.06777 m -17.30517,-4.43453 -13.43165,8.16011 -0.26784,1.0102 m -1.78438,-37.47103 -9.65053,15.2083 -0.89384,1.6418 6.3349,-0.8205 12.2096,-0.92505 m 3.42148,6.16017 -13.43165,8.16003 -0.26784,1.0102 m -268.41703,171.241937 -9.46433,-15.3508 m -6.30585,-11.48832 -5.26226,-8.81307 m 14.40121,23.86196 15.40864,-21.5048 -0.52817,-1.40635 -12.94229,1.93339 -13.60995,1.46339 m 40.27878,18.68413 -16.72677,-27.640277 m -8.45982,35.096557 c 0,0 5.90645,-3.34154 8.87312,-4.98781 1.51205,-0.83918 3.05449,-1.6245 4.55038,-2.49203 1.27246,-0.7347 2.49512,-1.55333 3.75792,-2.30469 1.58501,-0.94334 4.79225,-2.76688 4.79225,-2.76688 m -26.22174,-176.768647 4.80135,-9.07525 m -15.45885,28.2367 3.98873,-7.66801 m -1.99449,3.83412 26.32817,2.59181 0.95357,-1.16043 -8.14556,-10.24161 -8.07212,-11.05495 m 289.44813,89.22978 0.46974,12.03794 m 24.77742,-11.89755 0.58665,11.99114 m -0.29333,-5.99557 c 0,0 -6.78587,-0.0593 -10.1784,-0.11699 -1.72908,-0.0293 -3.45736,-0.12049 -5.18669,-0.117 -1.46943,0 -2.93744,0.0975 -4.40674,0.117 -1.84443,0.0244 -5.53378,0 -5.53378,0 m -234.8781,137.221547 7.55215,-13.7826 -0.27323,-1.00874 m -0.24292,18.85368 7.55215,-13.78268 -0.27323,-1.00882 m -0.24284,18.85368 7.55215,-13.7826 -0.27331,-1.00882 m 145.16173,12.66832 -8.16011,-13.4317 -1.0102,-0.26787 m 16.20631,9.63723 -8.16003,-13.43154 -1.0102,-0.26787 m -88.56737,-289.11648 8.34535,15.96184 0.97518,1.59476 2.4567,-5.89637 5.30377,-11.03643 m 7.0455,0.11716 0.35106,15.71201 0.74096,0.73706"
       inkscape:label="Major Degrees"
       inkscape:transform-center-x="9.0725022"
       inkscape:transform-center-y="-7.260656" />
    <path
       id="circle16"
       style="display:inline;fill:none;fill-rule:evenodd;stroke:#000000;stroke-width:2.4044;stroke-linecap:round;stroke-linejoin:round;stroke-dasharray:none;stroke-opacity:1"
       transform="matrix(0,-0.93578907,0.93578907,0,683.64602,820.62047)"
       d="m 677.45029,128.20233 a 1.1273495,1.1273495 0 0 1 -1.12735,1.12735 1.1273495,1.1273495 0 0 1 -1.12735,-1.12735 1.1273495,1.1273495 0 0 1 1.12735,-1.12735 1.1273495,1.1273495 0 0 1 1.12735,1.12735 z m 33.70828,-149.690394 a 1.1273495,1.1273495 0 0 1 -1.12735,1.12735 1.1273495,1.1273495 0 0 1 -1.12735,-1.12735 1.1273495,1.1273495 0 0 1 1.12735,-1.12735 1.1273495,1.1273495 0 0 1 1.12735,1.12735 z m -4.06226,-7.036059 a 1.1273495,1.1273495 0 0 1 -1.12735,1.12735 1.1273495,1.1273495 0 0 1 -1.12735,-1.12735 1.1273495,1.1273495 0 0 1 1.12735,-1.12735 1.1273495,1.1273495 0 0 1 1.12735,1.12735 z M 608.21145,-82.43972 a 1.1273495,1.1273495 0 0 1 -1.12735,1.12735 1.1273495,1.1273495 0 0 1 -1.12735,-1.12735 1.1273495,1.1273495 0 0 1 1.12735,-1.12735 1.1273495,1.1273495 0 0 1 1.12735,1.12735 z M 486.90359,2.8368691 505.83391,13.57243 c 0,0 -0.30714,-3.6903145 -0.65529,-5.5240233 -0.14724,-0.7750029 -0.35701,-1.6309926 -0.74985,-2.3151558 -0.38046,-0.6589743 -1.0234,-1.1632433 -1.68358,-1.5417082 -0.79034,-0.4563405 -1.70409,-0.8473075 -2.61592,-0.8083964 -0.68155,0.029094 -1.35588,0.2322179 -1.80972,0.7416664 -0.58506,0.6568835 -0.8113,1.4361043 -1.02097,2.2904899 -0.14442,0.5876589 -0.15136,2.0549561 -0.15136,2.0549561 m 15.31902,-41.7108827 c 0,0 5.84712,3.444274 8.75627,5.190518 1.48285,0.889843 2.93392,1.833024 4.43332,2.694664 1.27255,0.73472 2.59265,1.38428 3.87484,2.102055 1.60952,0.901097 4.79239,2.766885 4.79239,2.766885 m -17.79453,-19.790183 c 0,0 5.84706,3.444314 8.75627,5.190518 1.48278,0.889888 2.93392,1.833023 4.43332,2.694663 1.27255,0.734721 2.59265,1.384281 3.87484,2.102056 1.60953,0.901097 4.79239,2.766884 4.79239,2.766884 m -32.11442,4.763176 13.12051,-23.586344 m -24.93524,43.9563088 5.00122,-8.9637728 m -1.66692,4.2336306 26.32804,2.5918911 0.95376,-1.1605757 -8.1455,-10.241478 -8.07232,-11.054886 m 12.89548,28.7450702 19.67719,-34.5310052 m -27.09014,150.193639 18.76235,-11.02636 c 0,0 -3.34939,-1.57918 -5.11152,-2.19456 -0.74483,-0.26006 -1.59098,-0.50629 -2.37996,-0.50811 -0.76093,-10e-6 -1.51908,0.30459 -2.1769,0.6871 -0.79043,0.45635 -1.58586,1.05209 -2.00811,1.8613 -0.31538,0.60481 -0.47681,1.29026 -0.26251,1.93815 0.27631,0.83509 0.83798,1.42062 1.47317,2.02937 0.43665,0.41895 1.70395,1.15856 1.70395,1.15856 M 501.85361,87.852335 492.88837,72.719113 m 20.69885,35.550027 -5.26225,-8.813064 m 2.83293,3.560384 15.40866,-21.504783 -0.52823,-1.406289 -12.94206,1.93352 -13.60998,1.463369 m 31.34169,3.204747 -15.5629,-26.768734 m -19.37307,17.338491 c 0,0 5.90637,-3.341561 8.87311,-4.987801 1.51196,-0.839158 3.05443,-1.62435 4.55046,-2.49193 1.27239,-0.734801 2.49512,-1.553326 3.75774,-2.304719 1.58514,-0.943321 4.79235,-2.766956 4.79235,-2.766956 m 42.61228,68.063245 0.75355,-17.99622 -0.0471,-1.86856 -5.07579,3.878 -10.11138,6.906 M 721.26548,-12.827874 c 0,0 -1.33689,-1.271699 -2.17843,-1.584874 -0.7061,-0.262821 -1.43487,-0.357317 -2.18826,-0.35644 -0.67596,7.8e-4 -1.45948,0.08389 -2.0845,0.341442 -0.77191,0.318262 -1.38824,0.96425 -1.92218,1.606169 -0.3353,0.403187 -0.73178,0.847891 -0.77183,1.370948 -0.0674,0.875474 0.45351,1.7257055 0.9253,2.4663369 0.39737,0.6240446 0.95853,1.1452327 1.55349,1.5849318 0.70301,0.5194007 1.47679,1.0106906 2.32905,1.2047042 0.84382,0.1921449 1.78285,0.221312 2.59522,-0.077183 0.8967,-0.3292056 1.69323,-1.0047597 2.23863,-1.7887761 0.27883,-0.4016763 0.37503,-0.9114901 0.45912,-1.3931118 0.0747,-0.4292185 0.12609,-0.880373 0.0349,-1.306423 -0.15924,-0.747537 -0.9907,-2.067748 -0.9907,-2.067748 m -17.30523,-4.434527 -13.43163,8.1600836 -0.26786,1.0102031 m 9.63723,-16.2063337 -13.43163,8.160067 -0.26778,1.010211 m 43.18483,31.000166 -21.76187,0.167934 c 0,0 2.11109,3.042287 3.32944,4.456251 0.51502,0.597634 1.12469,1.233881 1.80711,1.630076 0.65809,0.381823 1.46793,0.495626 2.22875,0.49335 0.91265,3.4e-5 1.89954,-0.118311 2.66963,-0.607955 0.57562,-0.366111 1.05825,-0.879009 1.19644,-1.547004 0.17822,-0.86157 -0.0155,-1.649421 -0.26106,-2.494176 -0.16871,-0.581147 -0.89638,-1.855307 -0.89638,-1.855307 m 7.78743,32.33208 c -5.69338,0.07554 -11.38664,-0.172368 -17.07896,-0.120982 -2.60231,0.02356 -5.20418,0.138057 -7.80661,0.07885 m 24.68695,-8.006702 c -5.01433,-0.03816 -10.02704,-0.169849 -15.04084,-0.233555 -2.86996,-0.03656 -5.47115,0.177084 -8.34284,0.124357 -0.5516,-0.0097 -1.10343,-0.0081 -1.65506,-0.0081 m -0.50178,-14.143286 0.63933,27.192099 m 24.6078,-27.051662 0.96335,27.396498 m -0.80349,-21.400929 c 0,0 -6.65235,-0.0593 -10.04484,-0.116986 -1.72916,-0.02921 -3.45745,-0.120467 -5.18669,-0.116989 -1.46956,-9.5e-5 -2.93747,0.09755 -4.40684,0.11695 -1.84438,0.02437 -5.53368,4e-5 -5.53368,4e-5 m -92.27048,-107.225926 0.35098,15.712086 0.74104,0.737065 m 57.8249,184.766131 -15.20829,-9.65071 -1.6418,-0.89353 0.82057,6.3346 0.92498,12.20985 m 20.5769,-12.01534 -8.16011,-13.4313 -1.01021,-0.26787"
       inkscape:label="Minor Degrees"
       inkscape:transform-center-x="8.3132123"
       inkscape:transform-center-y="-1.5984911" />
    <path
       id="path142"
       style="font-variation-settings:normal;display:inline;opacity:1;vector-effect:none;fill:none;fill-opacity:1;fill-rule:evenodd;stroke:#000000;stroke-width:0.333473;stroke-linecap:round;stroke-linejoin:round;stroke-miterlimit:4;stroke-dasharray:2.00083, 2.00083;stroke-dashoffset:0;stroke-opacity:1;-inkscape-stroke:none;stop-color:#000000;stop-opacity:1"
       inkscape:transform-center-x="9.1263653"
       inkscape:transform-center-y="-14.708449"
       transform="matrix(0.93710883,0,0,0.93710883,-10.475496,-10.945105)"
       d="m 810.08747,13.990533 -9.76794,74.198564 c -16.91991,-2.40354 -34.08135,-2.586142 -51.04856,-0.543162 L 739.57308,13.990593 M 976.97141,126.6836 c 13.86807,17.48553 25.38909,36.71017 34.26979,57.18455 l -56.00083,23.19676 c -6.37841,-15.85484 -14.80097,-30.80837 -25.05384,-44.48093 z m 34.16519,252.99025 c -8.5646,20.64504 -19.79716,40.07899 -33.41091,57.8057 l -47.34583,-36.32981 c 10.46924,-13.57165 19.1149,-28.45668 25.71619,-44.27494 z m -80.6189,105.01368 c -17.7267,13.61377 -37.16065,24.84635 -57.80569,33.41097 l -22.79906,-55.0406 c 15.81827,-6.60129 30.7033,-15.24695 44.27495,-25.71619 z M 655.62212,437.14837 c 13.67256,10.25287 28.6261,18.67543 44.48094,25.05384 l -23.19676,56.00086 c -20.47439,-8.88071 -39.69902,-20.40173 -57.18456,-34.26981 z M 594.3652,258.03306 c -1.14021,7.87056 -1.76427,15.80728 -1.86819,23.75932 0.10399,7.9515 0.72805,15.88767 1.86819,23.75769 l -72.14775,9.49961 c -1.8153,-11.00255 -2.90935,-22.11204 -3.27533,-33.2573 0.36598,-11.14526 1.46003,-22.25475 3.27533,-33.2573 z M 619.72174,79.651497 C 637.20727,65.783408 656.43191,54.262376 676.9063,45.381659 l 23.19676,56.000851 c -15.85485,6.37843 -30.80838,14.801 -44.48094,25.05389 z"
       inkscape:label="Windows" />
  </g>
</svg>
