<?xml version="1.0" encoding="UTF-8" standalone="no"?>
<!-- Created with Inkscape (http://www.inkscape.org/) -->

<svg
   width="11in"
   height="8.5in"
   viewBox="0 0 990.00004 765"
   version="1.1"
   id="svg1"
   inkscape:version="1.3.2 (091e20e, 2023-11-25)"
   sodipodi:docname="blank.svg"
   inkscape:export-filename="color_handwritten.png"
   inkscape:export-xdpi="300"
   inkscape:export-ydpi="300"
   xmlns:inkscape="http://www.inkscape.org/namespaces/inkscape"
   xmlns:sodipodi="http://sodipodi.sourceforge.net/DTD/sodipodi-0.dtd"
   xmlns="http://www.w3.org/2000/svg"
   xmlns:svg="http://www.w3.org/2000/svg">
  <sodipodi:namedview
     id="namedview1"
     pagecolor="#ffffff"
     bordercolor="#000000"
     borderopacity="1"
     inkscape:showpageshadow="false"
     inkscape:pageopacity="0.0"
     inkscape:pagecheckerboard="false"
     inkscape:deskcolor="#d1d1d1"
     inkscape:document-units="pt"
     showborder="true"
     borderlayer="true"
     labelstyle="default"
     inkscape:zoom="1.92"
     inkscape:cx="570.05208"
     inkscape:cy="445.05208"
     inkscape:current-layer="layer1"
     showgrid="true"
     showguides="true">
    <inkscape:page
       x="0"
       y="0"
       width="990.00006"
       height="765"
       id="page1"
       margin="10.625 10.625 18.125"
       bleed="0"
       inkscape:export-filename="blank.pdf"
       inkscape:export-xdpi="300"
       inkscape:export-ydpi="300" />
    <inkscape:grid
       id="grid1"
       units="pt"
       originx="0"
       originy="0"
       spacingx="45"
       spacingy="45"
       empcolor="#000000"
       empopacity="0.30196078"
       color="#000000"
       opacity="0.05098039"
       empspacing="2"
       dotted="false"
       gridanglex="30"
       gridanglez="30"
       visible="true"
       enabled="true" />
  </sodipodi:namedview>
  <defs
     id="defs1" />
  <rect
     style="display:inline;fill:#ffffff;fill-opacity:1;stroke:none;stroke-width:0.333333;stroke-linecap:round;stroke-linejoin:round;stroke-dasharray:2, 2"
     id="rect1"
     width="1056"
     height="816"
     x="0"
     y="0"
     transform="matrix(0.9375,0,0,0.9375,2.0517578e-5,7.7272726e-6)"
     inkscape:export-filename="black_handwritten.png"
     inkscape:export-xdpi="300"
     inkscape:export-ydpi="300" />
  <g
     inkscape:groupmode="layer"
     id="layer4"
     inkscape:label="Paper"
     style="display:none"
     transform="translate(10.625,10.625)">
    <rect
       style="fill:none;fill-rule:evenodd;stroke:#000000;stroke-linecap:round;stroke-linejoin:round;stroke-opacity:1"
       id="rect123"
       width="1056"
       height="816"
       x="0"
       y="0"
       transform="scale(0.9375)" />
  </g>
  <g
     inkscape:groupmode="layer"
     id="layer3"
     inkscape:label="Note Wheel"
     style="display:inline"
     transform="translate(10.625,10.625)">
    <circle
       style="fill:none;fill-rule:evenodd;stroke:#000000;stroke-width:0.540735;stroke-linecap:round;stroke-linejoin:round;stroke-dasharray:3.24441, 3.24441;stroke-dashoffset:0;stroke-opacity:1"
       id="path121"
       cx="288"
       cy="576"
       r="15.32793"
       transform="matrix(0.57791675,0,0,0.57791675,86.684997,157.74496)"
       inkscape:label="Center" />
    <circle
       style="fill:none;fill-rule:evenodd;stroke:#000000;stroke-width:0.355556;stroke-linecap:round;stroke-linejoin:round;stroke-dasharray:2.13333, 2.13333;stroke-dashoffset:0;stroke-opacity:1"
       id="path122"
       cx="288"
       cy="576"
       r="288"
       transform="matrix(0.87890625,0,0,0.87890625,2.0711778e-5,-15.624992)"
       inkscape:label="Perimeter" />
  </g>
  <g
     inkscape:groupmode="layer"
     id="layer1"
     inkscape:label="Annotation Wheel"
     style="display:inline"
     transform="translate(10.625,10.625)">
    <circle
       style="fill:none;fill-rule:evenodd;stroke:#000000;stroke-width:0.355556;stroke-linecap:round;stroke-linejoin:round;stroke-dasharray:2.13333, 2.13333;stroke-dashoffset:0;stroke-opacity:1"
       id="path123"
       cx="864"
       cy="288"
       r="288"
       inkscape:label="Perimeter"
       transform="matrix(0.87890625,0,0,0.87890625,-43.749979,7.7272726e-6)" />
    <circle
       style="fill:none;fill-rule:evenodd;stroke:#000000;stroke-width:0.540735;stroke-linecap:round;stroke-linejoin:round;stroke-dasharray:3.24441, 3.24441;stroke-dashoffset:0;stroke-opacity:1"
       id="circle123"
       cx="288"
       cy="576"
       r="15.32793"
       transform="matrix(0.57791675,0,0,0.57791675,549.185,-79.755039)"
       inkscape:label="Center"
       inkscape:transform-center-x="-4e-06" />
    <path
       id="path142"
       style="font-variation-settings:normal;display:inline;opacity:1;vector-effect:none;fill:none;fill-opacity:1;fill-rule:evenodd;stroke:#000000;stroke-width:0.333473;stroke-linecap:round;stroke-linejoin:round;stroke-miterlimit:4;stroke-dasharray:2.00083, 2.00083;stroke-dashoffset:0;stroke-opacity:1;-inkscape-stroke:none;stop-color:#000000;stop-opacity:1"
       inkscape:transform-center-x="9.1263653"
       inkscape:transform-center-y="-14.708449"
       transform="matrix(0.93710883,0,0,0.93710883,-10.475496,-10.945105)"
       d="m 810.08747,13.990533 -9.76794,74.198564 c -16.91991,-2.40354 -34.08135,-2.586142 -51.04856,-0.543162 L 739.57308,13.990593 M 976.97141,126.6836 c 13.86807,17.48553 25.38909,36.71017 34.26979,57.18455 l -56.00083,23.19676 c -6.37841,-15.85484 -14.80097,-30.80837 -25.05384,-44.48093 z m 34.16519,252.99025 c -8.5646,20.64504 -19.79716,40.07899 -33.41091,57.8057 l -47.34583,-36.32981 c 10.46924,-13.57165 19.1149,-28.45668 25.71619,-44.27494 z m -80.6189,105.01368 c -17.7267,13.61377 -37.16065,24.84635 -57.80569,33.41097 l -22.79906,-55.0406 c 15.81827,-6.60129 30.7033,-15.24695 44.27495,-25.71619 z M 655.62212,437.14837 c 13.67256,10.25287 28.6261,18.67543 44.48094,25.05384 l -23.19676,56.00086 c -20.47439,-8.88071 -39.69902,-20.40173 -57.18456,-34.26981 z M 594.3652,258.03306 c -1.14021,7.87056 -1.76427,15.80728 -1.86819,23.75932 0.10399,7.9515 0.72805,15.88767 1.86819,23.75769 l -72.14775,9.49961 c -1.8153,-11.00255 -2.90935,-22.11204 -3.27533,-33.2573 0.36598,-11.14526 1.46003,-22.25475 3.27533,-33.2573 z M 619.72174,79.651497 C 637.20727,65.783408 656.43191,54.262376 676.9063,45.381659 l 23.19676,56.000851 c -15.85485,6.37843 -30.80838,14.801 -44.48094,25.05389 z"
       inkscape:label="Windows" />
  </g>
</svg>
